<svg xmlns="http://www.w3.org/2000/svg" width="165" height="50" fill="none" xmlns:v="https://vecta.io/nano"><rect width="165" height="50" rx="25" fill="#000"/><path d="M110.039 24.001v2.864h-1.807v1.878h1.807v6.381c0 2.179.992 3.051 3.489 3.051a7.34 7.34 0 0 0 1.222-.114v-1.857l-.857.052c-1.117 0-1.608-.519-1.608-1.702v-5.811h2.465v-1.878h-2.465v-2.864h-2.246zm11.07 14.329c3.322 0 5.359-2.21 5.359-5.873 0-3.642-2.048-5.862-5.359-5.862-3.321 0-5.369 2.22-5.369 5.862 0 3.663 2.037 5.873 5.369 5.873zm0-1.982c-1.953 0-3.05-1.421-3.05-3.891 0-2.449 1.097-3.881 3.05-3.881 1.943 0 3.05 1.432 3.05 3.881 0 2.459-1.107 3.891-3.05 3.891zm7.101 1.765h2.246v-6.672c0-1.588 1.201-2.656 2.904-2.656.397 0 1.065.073 1.253.135v-2.2c-.24-.062-.668-.093-1.003-.093-1.483 0-2.747.809-3.07 1.92h-.168v-1.733h-2.162v11.299zm11.979-9.619c1.661 0 2.747 1.152 2.799 2.926h-5.744c.125-1.764 1.284-2.926 2.945-2.926zm2.789 6.568c-.418.882-1.347 1.37-2.705 1.37-1.797 0-2.956-1.256-3.029-3.237v-.124h8.032v-.778c0-3.549-1.912-5.696-5.076-5.696-3.207 0-5.244 2.293-5.244 5.904s1.995 5.831 5.254 5.831c2.601 0 4.418-1.245 4.93-3.268h-2.162zM95.312 33.94c.173 2.775 2.501 4.549 5.965 4.549 3.703 0 6.02-1.861 6.02-4.829 0-2.334-1.321-3.624-4.526-4.366l-1.721-.419c-2.035-.473-2.858-1.108-2.858-2.215 0-1.398 1.277-2.312 3.193-2.312 1.819 0 3.075.893 3.302 2.323h2.361c-.141-2.613-2.458-4.452-5.63-4.452-3.41 0-5.684 1.839-5.684 4.603 0 2.28 1.288 3.635 4.114 4.291l2.014.484c2.068.484 2.977 1.194 2.977 2.377 0 1.377-1.429 2.377-3.378 2.377-2.089 0-3.54-.936-3.746-2.409h-2.403zm-23.263-7.314c-1.546 0-2.883.768-3.572 2.055h-.167v-1.868h-2.162v15.056h2.246v-5.468h.178c.595 1.193 1.88 1.899 3.499 1.899 2.872 0 4.7-2.252 4.7-5.842s-1.828-5.831-4.721-5.831zm-.637 9.67c-1.88 0-3.06-1.473-3.06-3.829 0-2.366 1.18-3.839 3.071-3.839 1.901 0 3.04 1.442 3.04 3.829 0 2.397-1.139 3.839-3.05 3.839zm13.216-9.67c-1.546 0-2.883.768-3.572 2.055h-.167v-1.868h-2.162v15.056h2.246v-5.468h.178c.595 1.193 1.88 1.899 3.499 1.899 2.872 0 4.7-2.252 4.7-5.842s-1.828-5.831-4.721-5.831zm-.637 9.67c-1.88 0-3.06-1.473-3.06-3.829 0-2.366 1.18-3.839 3.071-3.839 1.901 0 3.039 1.442 3.039 3.829 0 2.397-1.138 3.839-3.05 3.839zm-21.873 1.817h2.577l-5.64-15.519h-2.609l-5.64 15.519h2.49l1.44-4.119h5.954l1.429 4.119zm-4.493-12.701h.184l2.263 6.56h-4.72l2.274-6.56zM53.486 10.3h3.366c.821 0 1.551.161 2.189.484a3.49 3.49 0 0 1 1.485 1.353c.352.579.528 1.25.528 2.013s-.176 1.437-.528 2.024a3.59 3.59 0 0 1-1.485 1.353c-.638.315-1.368.473-2.189.473h-3.366v-7.7zm3.3 6.49c.565 0 1.06-.106 1.485-.319a2.32 2.32 0 0 0 .99-.924c.235-.403.352-.869.352-1.397s-.117-.99-.352-1.386a2.24 2.24 0 0 0-.99-.924c-.425-.22-.92-.33-1.485-.33h-1.87v5.28h1.87zm8.296 1.287a3.33 3.33 0 0 1-1.606-.385c-.477-.257-.851-.612-1.122-1.067-.264-.462-.396-.983-.396-1.562s.132-1.096.396-1.551c.271-.455.645-.81 1.122-1.067a3.33 3.33 0 0 1 1.606-.385c.601 0 1.14.128 1.617.385a2.78 2.78 0 0 1 1.111 1.067c.271.455.407.972.407 1.551a3.03 3.03 0 0 1-.407 1.562 2.78 2.78 0 0 1-1.111 1.067c-.477.257-1.016.385-1.617.385zm0-1.177a1.68 1.68 0 0 0 1.254-.506c.33-.337.495-.781.495-1.331s-.165-.994-.495-1.331a1.68 1.68 0 0 0-1.254-.506 1.68 1.68 0 0 0-1.254.506c-.323.337-.484.781-.484 1.331s.161.994.484 1.331a1.68 1.68 0 0 0 1.254.506zm13.452-4.774L76.367 18h-1.32l-1.518-4.048L71.989 18h-1.32l-2.156-5.874h1.298l1.551 4.334 1.617-4.334h1.155l1.584 4.356 1.595-4.356h1.221zm4.278-.066c.741 0 1.335.216 1.782.649s.671 1.074.671 1.925V18H83.89v-3.19c0-.513-.121-.898-.363-1.155-.242-.264-.587-.396-1.034-.396-.506 0-.906.154-1.199.462-.293.301-.44.737-.44 1.309V18h-1.375v-5.874h1.309v.759a2.15 2.15 0 0 1 .858-.616c.345-.139.733-.209 1.166-.209zm4.197-2.222h1.375V18H87.01V9.838zm5.82 8.239a3.33 3.33 0 0 1-1.606-.385c-.477-.257-.851-.612-1.122-1.067-.264-.462-.396-.983-.396-1.562s.132-1.096.396-1.551c.271-.455.645-.81 1.122-1.067a3.33 3.33 0 0 1 1.606-.385c.601 0 1.14.128 1.617.385a2.78 2.78 0 0 1 1.111 1.067c.271.455.407.972.407 1.551a3.03 3.03 0 0 1-.407 1.562 2.78 2.78 0 0 1-1.111 1.067c-.477.257-1.016.385-1.617.385zm0-1.177a1.68 1.68 0 0 0 1.254-.506c.33-.337.495-.781.495-1.331s-.165-.994-.495-1.331a1.68 1.68 0 0 0-1.254-.506 1.68 1.68 0 0 0-1.254.506c-.323.337-.484.781-.484 1.331s.161.994.484 1.331a1.68 1.68 0 0 0 1.254.506zm6.619-4.84c.865 0 1.525.209 1.98.627.462.411.693 1.034.693 1.87V18h-1.298v-.715c-.169.257-.411.455-.726.594-.308.132-.682.198-1.122.198s-.825-.073-1.155-.22c-.33-.154-.587-.363-.77-.627a1.64 1.64 0 0 1-.264-.913c0-.528.194-.95.583-1.265.396-.323 1.016-.484 1.859-.484h1.518v-.088c0-.411-.125-.726-.374-.946-.242-.22-.605-.33-1.089-.33a3.21 3.21 0 0 0-.979.154 2.4 2.4 0 0 0-.803.429l-.539-1.001c.308-.235.678-.414 1.111-.539s.891-.187 1.375-.187zm-.187 5.016c.345 0 .649-.077.913-.231.271-.161.462-.389.572-.682v-.682h-1.419c-.792 0-1.188.26-1.188.781a.7.7 0 0 0 .297.594c.198.147.473.22.825.22zm10.431-7.238V18h-1.32v-.759a2.11 2.11 0 0 1-.847.627 2.8 2.8 0 0 1-1.1.209 3.13 3.13 0 0 1-1.529-.374 2.71 2.71 0 0 1-1.056-1.056c-.256-.462-.385-.99-.385-1.584s.129-1.118.385-1.573a2.71 2.71 0 0 1 1.056-1.056 3.13 3.13 0 0 1 1.529-.374c.389 0 .745.066 1.067.198a2.14 2.14 0 0 1 .825.594V9.838h1.375zM106.59 16.9a1.8 1.8 0 0 0 .891-.22 1.67 1.67 0 0 0 .627-.649c.154-.279.231-.601.231-.968s-.077-.689-.231-.968a1.59 1.59 0 0 0-.627-.638c-.264-.154-.561-.231-.891-.231s-.627.077-.891.231a1.59 1.59 0 0 0-.627.638c-.154.279-.231.601-.231.968s.077.689.231.968a1.67 1.67 0 0 0 .627.649 1.8 1.8 0 0 0 .891.22zm-67.97 8.476a6.23 6.23 0 0 1 2.965-5.19c-1.137-1.613-3.041-2.636-5.022-2.697-2.113-.22-4.162 1.256-5.238 1.256-1.098 0-2.756-1.234-4.541-1.198a6.75 6.75 0 0 0-5.628 3.41c-2.434 4.186-.618 10.337 1.713 13.72 1.166 1.657 2.529 3.507 4.313 3.442 1.745-.072 2.397-1.106 4.504-1.106 2.087 0 2.699 1.106 4.519 1.064 1.873-.03 3.053-1.664 4.178-3.336a13.66 13.66 0 0 0 1.911-3.866c-2.201-.925-3.671-3.125-3.673-5.499zm-3.437-10.112c1.021-1.218 1.524-2.783 1.402-4.363-1.56.163-3.001.903-4.036 2.074-1.012 1.144-1.539 2.682-1.439 4.202 1.561.016 3.095-.705 4.073-1.913z" fill="#fff"/></svg>