<svg xmlns="http://www.w3.org/2000/svg" width="182" height="50" fill="none" xmlns:v="https://vecta.io/nano"><rect width="182" height="50" rx="25" fill="#000"/><path d="M90.048 27.189c-2.944 0-5.344 2.236-5.344 5.316 0 3.061 2.4 5.316 5.344 5.316s5.345-2.255 5.345-5.316c-.001-3.08-2.401-5.316-5.345-5.316zm0 8.54c-1.614 0-3.004-1.329-3.004-3.222 0-1.914 1.392-3.223 3.004-3.223s3.004 1.309 3.004 3.223c0 1.892-1.391 3.222-3.004 3.222zm-11.66-8.54c-2.944 0-5.344 2.236-5.344 5.316 0 3.061 2.4 5.316 5.344 5.316s5.345-2.255 5.345-5.316c0-3.08-2.4-5.316-5.345-5.316zm0 8.54c-1.614 0-3.005-1.329-3.005-3.222 0-1.914 1.392-3.223 3.005-3.223s3.004 1.309 3.004 3.223c.001 1.892-1.391 3.222-3.004 3.222zM64.52 28.821v2.255h5.406c-.162 1.269-.585 2.195-1.231 2.839-.786.785-2.017 1.651-4.175 1.651-3.327 0-5.929-2.679-5.929-6.001s2.601-6.001 5.929-6.001a5.76 5.76 0 0 1 4.074 1.611l1.594-1.591c-1.352-1.289-3.146-2.275-5.667-2.275-4.558 0-8.39 3.705-8.39 8.256s3.832 8.256 8.39 8.256c2.46 0 4.316-.806 5.767-2.316 1.492-1.49 1.957-3.585 1.957-5.276a7.29 7.29 0 0 0-.121-1.409H64.52v.001zm56.719 1.751c-.443-1.187-1.795-3.384-4.558-3.384-2.743 0-5.022 2.155-5.022 5.316 0 2.98 2.259 5.316 5.284 5.316 2.44 0 3.852-1.49 4.438-2.356l-1.815-1.209c-.605.886-1.433 1.47-2.623 1.47s-2.037-.544-2.581-1.611l7.119-2.94-.242-.602zm-7.26 1.773c-.061-2.055 1.593-3.101 2.784-3.101.927 0 1.713.464 1.976 1.128l-4.76 1.974zm-5.788 5.155h2.339V21.874h-2.339V37.5zm-3.833-9.123h-.08c-.525-.625-1.534-1.189-2.803-1.189-2.663 0-5.102 2.336-5.102 5.337 0 2.98 2.44 5.296 5.102 5.296 1.271 0 2.278-.564 2.803-1.208h.08v.765c0 2.034-1.089 3.121-2.843 3.121-1.432 0-2.32-1.026-2.683-1.892l-2.037.846c.585 1.409 2.137 3.141 4.719 3.141 2.743 0 5.063-1.611 5.063-5.539V27.51h-2.219v.865h-.001zm-2.681 7.351c-1.614 0-2.965-1.35-2.965-3.203 0-1.874 1.351-3.242 2.965-3.242 1.592 0 2.843 1.369 2.843 3.242 0 1.852-1.251 3.203-2.843 3.203zm30.521-13.855h-5.597V37.5h2.335v-5.92h3.261c2.589 0 5.135-1.871 5.135-4.853s-2.545-4.854-5.134-4.854zm.06 7.531h-3.322v-5.356h3.322c1.746 0 2.738 1.444 2.738 2.679 0 1.21-.992 2.678-2.738 2.678zm14.436-2.244c-1.691 0-3.442.744-4.167 2.392l2.073.864c.443-.864 1.269-1.146 2.134-1.146 1.209 0 2.437.724 2.457 2.01v.161c-.423-.241-1.33-.602-2.436-.602-2.235 0-4.511 1.226-4.511 3.517 0 2.091 1.833 3.438 3.886 3.438 1.57 0 2.436-.704 2.979-1.529h.08v1.206h2.256V31.48c.001-2.773-2.074-4.32-4.751-4.32zm-.282 8.564c-.764 0-1.832-.383-1.832-1.328 0-1.206 1.33-1.669 2.477-1.669 1.026 0 1.51.221 2.134.523-.182 1.449-1.43 2.474-2.779 2.474zm13.248-8.222l-2.678 6.775h-.08l-2.779-6.775h-2.516l4.167 9.469-2.376 5.267h2.436l6.423-14.736h-2.597zM138.621 37.5h2.335V21.874h-2.335V37.5zM56.786 8.3h3.366c.821 0 1.551.161 2.189.484a3.49 3.49 0 0 1 1.485 1.353c.352.579.528 1.25.528 2.013s-.176 1.437-.528 2.024a3.59 3.59 0 0 1-1.485 1.353c-.638.315-1.368.473-2.189.473h-3.366V8.3zm3.3 6.49c.565 0 1.06-.106 1.485-.319a2.32 2.32 0 0 0 .99-.924c.235-.403.352-.869.352-1.397s-.117-.99-.352-1.386a2.24 2.24 0 0 0-.99-.924c-.425-.22-.92-.33-1.485-.33h-1.87v5.28h1.87zm8.296 1.287a3.33 3.33 0 0 1-1.606-.385c-.477-.257-.851-.612-1.122-1.067-.264-.462-.396-.983-.396-1.562s.132-1.096.396-1.551c.271-.455.645-.81 1.122-1.067a3.33 3.33 0 0 1 1.606-.385c.601 0 1.14.128 1.617.385a2.78 2.78 0 0 1 1.111 1.067c.271.455.407.972.407 1.551a3.03 3.03 0 0 1-.407 1.562 2.78 2.78 0 0 1-1.111 1.067c-.477.257-1.016.385-1.617.385zm0-1.177a1.68 1.68 0 0 0 1.254-.506c.33-.337.495-.781.495-1.331s-.165-.994-.495-1.331a1.68 1.68 0 0 0-1.254-.506 1.68 1.68 0 0 0-1.254.506c-.323.337-.484.781-.484 1.331s.161.994.484 1.331a1.68 1.68 0 0 0 1.254.506zm13.452-4.774L79.667 16h-1.32l-1.518-4.048L75.289 16h-1.32l-2.156-5.874h1.298l1.551 4.334 1.617-4.334h1.155l1.584 4.356 1.595-4.356h1.221zm4.278-.066c.741 0 1.335.216 1.782.649s.671 1.074.671 1.925V16H87.19v-3.19c0-.513-.121-.898-.363-1.155-.242-.264-.587-.396-1.034-.396-.506 0-.906.154-1.199.462-.293.301-.44.737-.44 1.309V16h-1.375v-5.874h1.309v.759a2.15 2.15 0 0 1 .858-.616c.345-.139.733-.209 1.166-.209zm4.197-2.222h1.375V16h-1.375V7.838zm5.82 8.239a3.33 3.33 0 0 1-1.606-.385 2.86 2.86 0 0 1-1.122-1.067c-.264-.462-.396-.983-.396-1.562s.132-1.096.396-1.551a2.86 2.86 0 0 1 1.122-1.067 3.33 3.33 0 0 1 1.606-.385c.601 0 1.14.128 1.617.385a2.78 2.78 0 0 1 1.111 1.067c.271.455.407.972.407 1.551a3.03 3.03 0 0 1-.407 1.562 2.78 2.78 0 0 1-1.111 1.067c-.477.257-1.016.385-1.617.385zm0-1.177a1.68 1.68 0 0 0 1.254-.506c.33-.337.495-.781.495-1.331s-.165-.994-.495-1.331a1.68 1.68 0 0 0-1.254-.506 1.68 1.68 0 0 0-1.254.506c-.323.337-.484.781-.484 1.331s.161.994.484 1.331a1.68 1.68 0 0 0 1.254.506zm6.619-4.84c.865 0 1.525.209 1.98.627.462.411.693 1.034.693 1.87V16h-1.298v-.715c-.169.257-.411.455-.726.594-.308.132-.682.198-1.122.198s-.825-.073-1.155-.22c-.33-.154-.587-.363-.77-.627a1.64 1.64 0 0 1-.264-.913c0-.528.194-.95.583-1.265.396-.323 1.015-.484 1.859-.484h1.518v-.088c0-.411-.125-.726-.374-.946-.242-.22-.605-.33-1.089-.33a3.2 3.2 0 0 0-.979.154c-.316.103-.583.246-.803.429l-.539-1.001c.308-.235.678-.414 1.111-.539a4.94 4.94 0 0 1 1.375-.187zm-.187 5.016a1.78 1.78 0 0 0 .913-.231c.271-.161.462-.389.572-.682v-.682h-1.419c-.792 0-1.188.26-1.188.781a.7.7 0 0 0 .297.594c.198.147.473.22.825.22zm10.431-7.238V16h-1.32v-.759a2.12 2.12 0 0 1-.847.627c-.33.139-.697.209-1.1.209a3.13 3.13 0 0 1-1.529-.374 2.71 2.71 0 0 1-1.056-1.056c-.257-.462-.385-.99-.385-1.584s.128-1.118.385-1.573a2.71 2.71 0 0 1 1.056-1.056 3.13 3.13 0 0 1 1.529-.374c.389 0 .744.066 1.067.198a2.14 2.14 0 0 1 .825.594V7.838h1.375zM109.89 14.9a1.8 1.8 0 0 0 .891-.22 1.67 1.67 0 0 0 .627-.649c.154-.279.231-.601.231-.968s-.077-.689-.231-.968a1.59 1.59 0 0 0-.627-.638c-.264-.154-.561-.231-.891-.231s-.627.077-.891.231a1.59 1.59 0 0 0-.627.638c-.154.279-.231.601-.231.968s.077.689.231.968a1.67 1.67 0 0 0 .627.649 1.8 1.8 0 0 0 .891.22z" fill="#fff"/><g filter="url(#A)"><path d="M20.469 12.401c-.295.311-.469.795-.469 1.42v22.359c0 .627.174 1.109.469 1.42l.075.073 12.544-12.525v-.148-.148L20.544 12.328l-.075.074z" fill="url(#C)"/><path d="M37.268 29.325l-4.181-4.176v-.148-.148l4.182-4.175.094.054 4.954 2.811c1.414.803 1.414 2.116 0 2.92l-4.954 2.811-.095.053z" fill="url(#D)"/><g filter="url(#B)"><path d="M37.363 29.272l-4.277-4.27-12.618 12.6c.466.493 1.236.554 2.104.063l14.79-8.392z" fill="url(#E)"/></g><path d="M37.363 20.731l-14.79-8.391c-.868-.492-1.638-.431-2.104.063l12.619 12.6 4.276-4.271z" fill="url(#F)"/></g><defs><filter id="A" x="20" y="12" width="23.378" height="26.004" filterUnits="userSpaceOnUse" color-interpolation-filters="sRGB"><feFlood flood-opacity="0"/><feBlend in="SourceGraphic" result="B"/><feColorMatrix in="SourceAlpha" values="0 0 0 0 0 0 0 0 0 0 0 0 0 0 0 0 0 0 127 0" result="C"/><feOffset dy="-0.15"/><feComposite in2="C" operator="arithmetic" k2="-1" k3="1"/><feColorMatrix values="0 0 0 0 0 0 0 0 0 0 0 0 0 0 0 0 0 0 0.12 0"/><feBlend in2="B" result="D"/><feColorMatrix in="SourceAlpha" values="0 0 0 0 0 0 0 0 0 0 0 0 0 0 0 0 0 0 127 0" result="C"/><feOffset dy="0.15"/><feComposite in2="C" operator="arithmetic" k2="-1" k3="1"/><feColorMatrix values="0 0 0 0 1 0 0 0 0 1 0 0 0 0 1 0 0 0 0.25 0"/><feBlend in2="D"/></filter><filter id="B" x="20.469" y="25.002" width="16.894" height="13.002" filterUnits="userSpaceOnUse" color-interpolation-filters="sRGB"><feFlood flood-opacity="0"/><feBlend in="SourceGraphic" result="B"/><feColorMatrix in="SourceAlpha" values="0 0 0 0 0 0 0 0 0 0 0 0 0 0 0 0 0 0 127 0" result="C"/><feOffset dy="-0.15"/><feComposite in2="C" operator="arithmetic" k2="-1" k3="1"/><feColorMatrix values="0 0 0 0 0 0 0 0 0 0 0 0 0 0 0 0 0 0 0.08 0"/><feBlend in2="B"/></filter><linearGradient id="C" x1="31.976" y1="13.585" x2="15.009" y2="30.577" gradientUnits="userSpaceOnUse"><stop stop-color="#00a0ff"/><stop offset=".007" stop-color="#00a1ff"/><stop offset=".26" stop-color="#00beff"/><stop offset=".512" stop-color="#00d2ff"/><stop offset=".76" stop-color="#00dfff"/><stop offset="1" stop-color="#00e3ff"/></linearGradient><linearGradient id="D" x1="44.159" y1="25.001" x2="19.66" y2="25.001" gradientUnits="userSpaceOnUse"><stop stop-color="#ffe000"/><stop offset=".409" stop-color="#ffbd00"/><stop offset=".775" stop-color="orange"/><stop offset="1" stop-color="#ff9c00"/></linearGradient><linearGradient id="E" x1="35.041" y1="27.321" x2="12.032" y2="50.363" gradientUnits="userSpaceOnUse"><stop stop-color="#ff3a44"/><stop offset="1" stop-color="#c31162"/></linearGradient><linearGradient id="F" x1="17.291" y1="4.959" x2="27.565" y2="15.249" gradientUnits="userSpaceOnUse"><stop stop-color="#32a071"/><stop offset=".069" stop-color="#2da771"/><stop offset=".476" stop-color="#15cf74"/><stop offset=".801" stop-color="#06e775"/><stop offset="1" stop-color="#00f076"/></linearGradient></defs></svg>